<svg xmlns="http://www.w3.org/2000/svg" width="42" height="42" viewBox="0 0 42 42" fill="none">
  <g filter="url(#filter0_i_1_156)">
    <circle cx="21" cy="21" r="19" fill="black"/>
    <circle cx="21" cy="21" r="19" fill="url(#paint0_radial_1_156)"/>
  </g>
  <circle cx="21" cy="21" r="19.75" stroke="white" stroke-width="1.5"/>
  <path d="M21 6L22.8709 13.4504C23.2835 15.0934 24.9736 16.0691 26.6027 15.605L33.9904 13.5L28.4736 18.8455C27.2571 20.0242 27.2571 21.9758 28.4736 23.1545L33.9904 28.5L26.6027 26.395C24.9736 25.9309 23.2835 26.9066 22.8709 28.5496L21 36L19.1291 28.5496C18.7165 26.9066 17.0265 25.9309 15.3974 26.395L8.00964 28.5L13.5265 23.1545C14.743 21.9758 14.743 20.0242 13.5265 18.8455L8.00964 13.5L15.3974 15.605C17.0265 16.0691 18.7165 15.0934 19.1291 13.4504L21 6Z" fill="black"/>
  <defs>
    <filter id="filter0_i_1_156" x="0.5" y="0.5" width="41" height="41" filterUnits="userSpaceOnUse" color-interpolation-filters="sRGB">
      <feFlood flood-opacity="0" result="BackgroundImageFix"/>
      <feBlend mode="normal" in="SourceGraphic" in2="BackgroundImageFix" result="shape"/>
      <feColorMatrix in="SourceAlpha" type="matrix" values="0 0 0 0 0 0 0 0 0 0 0 0 0 0 0 0 0 0 127 0" result="hardAlpha"/>
      <feMorphology radius="2" operator="erode" in="SourceAlpha" result="effect1_innerShadow_1_156"/>
      <feOffset/>
      <feGaussianBlur stdDeviation="2"/>
      <feComposite in2="hardAlpha" operator="arithmetic" k2="-1" k3="1"/>
      <feColorMatrix type="matrix" values="0 0 0 0 0 0 0 0 0 0 0 0 0 0 0 0 0 0 1 0"/>
      <feBlend mode="overlay" in2="shape" result="effect1_innerShadow_1_156"/>
    </filter>
    <radialGradient id="paint0_radial_1_156" cx="0" cy="0" r="1" gradientUnits="userSpaceOnUse" gradientTransform="translate(17.5 17) rotate(48.3665) scale(24.0832)">
      <stop offset="0.232381" stop-color="white"/>
      <stop offset="0.699526" stop-color="#DAD1C9"/>
    </radialGradient>
  </defs>
</svg>