<svg xmlns="http://www.w3.org/2000/svg" width="42" height="42" viewBox="0 0 42 42" fill="none">
  <g filter="url(#filter0_i_1_216)">
    <circle cx="21" cy="21" r="19" fill="#E73A3E"/>
    <circle cx="21" cy="21" r="19" fill="url(#paint0_radial_1_216)"/>
  </g>
  <circle cx="21" cy="21" r="19.75" stroke="white" stroke-width="1.5"/>
  <path fill-rule="evenodd" clip-rule="evenodd" d="M20.5 37C14 37 7.6 34.3 6 25.5C6.5 26.5 8.2 28.5 11 28.5C10 28 8 25.8 8 21C8 16.2 10.6667 14.3333 12 14C11 15.8333 10 20 14 22C13.6667 21.3333 13.5 19.7 13.5 18.5C13.5 16.1088 15.3353 14.5647 17.0555 13.1175C18.5725 11.8412 20 10.6402 20 9C20 6.2 19.1667 5.16667 18.5 5C20.8333 5.5 25.5 8.1 25.5 14.5V20.5C28 20.3333 33 19.2 33 16C34.1667 18 34.9 22.9 28.5 26.5C30.5 26.6667 34.8 26.4 36 24C34.6667 28.3333 30 37 20.5 37ZM15.25 32C15.625 31.75 16 31.5 16 31C16 30.1056 15 28.8333 14.5 28.5C15.6667 28.5 17 29 18 30.5C18.0715 30.071 17.8976 29.642 17.6757 29.0946C17.3804 28.3659 17 27.4275 17 26C17 23.8654 19 22.5 20.5 22.5C20.4257 22.6485 20.3221 22.7876 20.2096 22.9388C19.8907 23.3668 19.5 23.8915 19.5 25C19.5 26 21 27.5 22 28C23 28.5 24 28.5 25.5 27C25.5 27.1667 25.4444 27.4444 25.3704 27.8148C25.2222 28.5556 25 29.6667 25 31C25 31.5198 25.4053 31.944 25.7945 32.3515C26.1541 32.728 26.5 33.0901 26.5 33.5C26.6667 34.3333 25.7 36 20.5 36C15.3 36 14.5 34 14.5 33C14.5 32.5 14.875 32.25 15.25 32Z" fill="black"/>
  <defs>
    <filter id="filter0_i_1_216" x="0.5" y="0.5" width="41" height="41" filterUnits="userSpaceOnUse" color-interpolation-filters="sRGB">
      <feFlood flood-opacity="0" result="BackgroundImageFix"/>
      <feBlend mode="normal" in="SourceGraphic" in2="BackgroundImageFix" result="shape"/>
      <feColorMatrix in="SourceAlpha" type="matrix" values="0 0 0 0 0 0 0 0 0 0 0 0 0 0 0 0 0 0 127 0" result="hardAlpha"/>
      <feMorphology radius="2" operator="erode" in="SourceAlpha" result="effect1_innerShadow_1_216"/>
      <feOffset/>
      <feGaussianBlur stdDeviation="2"/>
      <feComposite in2="hardAlpha" operator="arithmetic" k2="-1" k3="1"/>
      <feColorMatrix type="matrix" values="0 0 0 0 0 0 0 0 0 0 0 0 0 0 0 0 0 0 1 0"/>
      <feBlend mode="overlay" in2="shape" result="effect1_innerShadow_1_216"/>
    </filter>
    <radialGradient id="paint0_radial_1_216" cx="0" cy="0" r="1" gradientUnits="userSpaceOnUse" gradientTransform="translate(17.5 17) rotate(48.3665) scale(24.0832)">
      <stop offset="0.232381" stop-color="white" stop-opacity="0.8"/>
      <stop offset="0.699526" stop-color="#E73A3E"/>
    </radialGradient>
  </defs>
</svg>