<svg xmlns="http://www.w3.org/2000/svg" width="42" height="42" viewBox="0 0 42 42" fill="none">
  <g filter="url(#filter0_i_1_206)">
    <circle cx="21" cy="21" r="19" fill="#00B9F2"/>
    <circle cx="21" cy="21" r="19" fill="url(#paint0_radial_1_206)"/>
  </g>
  <circle cx="21" cy="21" r="19.75" stroke="white" stroke-width="1.5"/>
  <path fill-rule="evenodd" clip-rule="evenodd" d="M33 8.00685C25 7.84018 8.00002 10.6507 8 23.5068C7.99999 31.0068 15 33.5068 20.5 33.5068C26 33.5068 31.5 31.5068 31.5 27.0068C31.5 24.8161 29.9595 23.2179 28.3784 21.5775C26.7117 19.8485 25 18.0727 25 15.5068C25 11.5068 30.3333 8.84018 33 8.00685ZM17.9136 31.5586C20.1069 32.0715 22.054 31.7638 22.2627 30.8715C22.4713 29.9791 20.8625 28.84 18.6692 28.3272C16.4759 27.8144 14.5288 28.122 14.3202 29.0144C14.1115 29.9067 15.7204 31.0458 17.9136 31.5586Z" fill="black"/>
  <defs>
    <filter id="filter0_i_1_206" x="0.5" y="0.5" width="41" height="41" filterUnits="userSpaceOnUse" color-interpolation-filters="sRGB">
      <feFlood flood-opacity="0" result="BackgroundImageFix"/>
      <feBlend mode="normal" in="SourceGraphic" in2="BackgroundImageFix" result="shape"/>
      <feColorMatrix in="SourceAlpha" type="matrix" values="0 0 0 0 0 0 0 0 0 0 0 0 0 0 0 0 0 0 127 0" result="hardAlpha"/>
      <feMorphology radius="2" operator="erode" in="SourceAlpha" result="effect1_innerShadow_1_206"/>
      <feOffset/>
      <feGaussianBlur stdDeviation="2"/>
      <feComposite in2="hardAlpha" operator="arithmetic" k2="-1" k3="1"/>
      <feColorMatrix type="matrix" values="0 0 0 0 0 0 0 0 0 0 0 0 0 0 0 0 0 0 1 0"/>
      <feBlend mode="overlay" in2="shape" result="effect1_innerShadow_1_206"/>
    </filter>
    <radialGradient id="paint0_radial_1_206" cx="0" cy="0" r="1" gradientUnits="userSpaceOnUse" gradientTransform="translate(17.5 17) rotate(48.3665) scale(24.0832)">
      <stop offset="0.232381" stop-color="white" stop-opacity="0.9"/>
      <stop offset="1" stop-color="#00B9F2"/>
    </radialGradient>
  </defs>
</svg>