<svg xmlns="http://www.w3.org/2000/svg" width="657" height="28" viewBox="0 0 657 28" fill="none">
  <path d="M13.5 0H46.5C34 4.66667 9 9.93548 9 19.4194C9 23.3935 14 26.9462 16.5 28C10.5 28 0 27.0968 0 16.2581C0 5.41935 8.83333 0.752688 13.5 0Z" fill="url(#paint0_linear_1_911)"/>
  <path d="M603 15.8065C592.5 19.871 576 26.3441 567.5 28H607.148C608.034 28 608.903 27.765 609.668 27.3189L656.5 0H612.5C614 0.752688 617 2.70968 617 6.77419C617 10.8387 611.167 12.6452 603 15.8065Z" fill="url(#paint1_linear_1_911)"/>
  <defs>
    <linearGradient id="paint0_linear_1_911" x1="326.5" y1="0.451613" x2="326.5" y2="28.21" gradientUnits="userSpaceOnUse">
      <stop stop-color="#888D91"/>
      <stop offset="0.217589" stop-color="#969694"/>
      <stop offset="0.377254" stop-color="#F3F3F4"/>
      <stop offset="0.501698" stop-color="#707172"/>
      <stop offset="0.674328" stop-color="#545454"/>
      <stop offset="0.864352" stop-color="#C7C7C7"/>
      <stop offset="1" stop-color="#888A8B"/>
    </linearGradient>
    <linearGradient id="paint1_linear_1_911" x1="326.5" y1="0.451613" x2="326.5" y2="28.21" gradientUnits="userSpaceOnUse">
      <stop stop-color="#888D91"/>
      <stop offset="0.217589" stop-color="#969694"/>
      <stop offset="0.377254" stop-color="#F3F3F4"/>
      <stop offset="0.501698" stop-color="#707172"/>
      <stop offset="0.674328" stop-color="#545454"/>
      <stop offset="0.864352" stop-color="#C7C7C7"/>
      <stop offset="1" stop-color="#888A8B"/>
    </linearGradient>
  </defs>
</svg>